<?xml version="1.0" standalone="no"?>
<!DOCTYPE svg PUBLIC "-//W3C//DTD SVG 20010904//EN"
 "http://www.w3.org/TR/2001/REC-SVG-20010904/DTD/svg10.dtd">
<svg version="1.0" xmlns="http://www.w3.org/2000/svg"
 width="1134.000000pt" height="1134.000000pt" viewBox="0 0 1134.000000 1134.000000"
 preserveAspectRatio="xMidYMid meet">
<metadata>
Created by potrace 1.11, written by Peter Selinger 2001-2013
</metadata>
<g transform="translate(0.000000,1134.000000) scale(0.100000,-0.100000)"
fill="#000000" stroke="none">
<path d="M6098 9294 c-2 -1 -50 -5 -108 -8 -58 -3 -118 -8 -135 -10 -16 -2
-55 -7 -85 -10 -88 -10 -173 -22 -220 -31 -13 -3 -40 -7 -60 -10 -40 -6 -72
-12 -112 -20 -15 -4 -39 -8 -55 -10 -24 -3 -181 -37 -235 -51 -10 -2 -27 -6
-39 -9 -11 -2 -29 -7 -39 -10 -10 -3 -28 -8 -39 -10 -40 -9 -56 -13 -136 -35
-183 -49 -220 -63 -254 -97 -41 -41 -56 -49 -191 -102 -191 -75 -238 -103
-365 -218 -66 -60 -158 -141 -205 -182 -100 -87 -297 -279 -380 -371 -200
-221 -428 -553 -555 -810 -64 -128 -181 -406 -190 -449 -2 -9 -12 -43 -23 -76
-28 -84 -47 -155 -70 -265 -20 -93 -24 -117 -39 -222 -10 -68 -10 -446 -1
-518 14 -101 17 -115 33 -193 39 -191 109 -381 206 -566 76 -145 111 -197 131
-193 15 2 14 -4 -2 -65 -9 -38 -36 -117 -59 -178 -111 -290 -151 -417 -166
-530 -7 -54 -8 -194 -1 -235 14 -87 21 -112 47 -175 16 -38 40 -82 54 -97 63
-72 151 -90 205 -40 40 36 49 71 46 184 -3 103 12 161 60 230 53 76 172 142
278 155 159 19 310 -10 541 -104 61 -25 130 -51 155 -58 63 -17 142 -10 224
18 81 29 122 27 208 -9 80 -34 135 -36 233 -10 44 12 87 21 95 20 77 -3 155
-68 188 -156 26 -69 29 -241 5 -277 -12 -19 -13 -31 -5 -60 6 -20 13 -55 17
-78 6 -36 43 -91 64 -94 3 0 13 -2 21 -4 8 -2 46 -11 84 -19 70 -16 88 -25
118 -63 25 -29 43 -24 78 24 38 52 105 86 157 80 21 -2 61 -14 88 -26 93 -42
148 -29 256 61 83 68 117 70 201 17 62 -40 118 -42 243 -12 125 30 158 26 241
-28 77 -50 130 -56 234 -27 152 42 200 34 259 -45 61 -83 75 -91 139 -91 43 0
73 8 122 31 79 37 144 56 170 48 93 -30 99 -1 66 310 -2 17 -7 64 -11 105 -4
41 -10 95 -14 120 -9 58 -7 165 3 210 21 87 113 159 226 176 50 7 172 7 209
-1 14 -2 47 -7 75 -10 28 -3 65 -8 81 -11 168 -30 335 7 420 94 66 67 95 139
100 252 14 293 -231 511 -746 665 -46 14 -93 27 -104 30 -11 2 -54 13 -95 24
-41 11 -86 22 -100 25 -44 9 -71 15 -88 20 -9 3 -30 8 -47 11 -134 27 -296 95
-401 170 -65 46 -174 161 -174 183 0 6 -4 12 -8 12 -10 0 -75 127 -97 190 -24
67 -30 115 -29 220 1 80 6 107 31 171 50 128 141 248 281 371 41 36 52 52 47
67 -8 26 -33 34 -55 18 -42 -29 -138 -126 -195 -197 -169 -210 -219 -438 -146
-667 68 -214 224 -393 436 -500 104 -53 176 -78 341 -117 82 -20 176 -43 209
-52 33 -9 65 -17 70 -19 64 -13 249 -73 345 -112 301 -121 447 -274 456 -476
6 -153 -81 -276 -221 -312 -60 -16 -212 -10 -325 12 -14 2 -79 6 -146 9 -161
5 -260 -23 -342 -97 -78 -70 -99 -164 -78 -349 8 -71 11 -98 21 -210 7 -91 13
-149 20 -215 l5 -50 -44 -2 c-25 -1 -78 -16 -123 -36 -141 -62 -161 -59 -224
28 -34 47 -66 73 -102 82 -48 11 -124 8 -201 -9 -115 -25 -132 -23 -226 24
-101 51 -153 56 -261 27 -119 -32 -145 -31 -217 7 -117 63 -162 57 -287 -40
-33 -26 -70 -49 -83 -53 -15 -3 -51 4 -89 17 -36 13 -82 25 -103 27 -55 7
-138 -21 -184 -60 l-40 -34 -30 18 c-17 10 -44 20 -61 23 -16 3 -43 8 -60 11
-90 16 -112 48 -99 147 18 151 8 296 -28 379 -36 83 -128 153 -214 162 -22 3
-68 -5 -113 -19 -99 -31 -123 -30 -222 6 -103 38 -153 40 -252 7 -105 -34
-148 -29 -299 31 -104 42 -187 73 -208 77 -3 1 -25 7 -50 14 -79 23 -131 32
-205 35 -215 11 -413 -86 -499 -245 -38 -69 -40 -80 -41 -221 0 -80 -5 -132
-12 -139 -17 -17 -95 22 -125 62 -20 27 -53 105 -63 149 -21 90 -24 200 -9
300 11 71 54 232 74 275 29 63 129 333 146 395 69 254 75 337 64 970 -2 91 0
198 4 237 7 69 9 84 21 143 2 14 7 40 10 59 3 19 8 38 11 43 3 5 8 20 10 35 3
15 9 32 13 38 4 5 20 44 36 85 15 41 38 98 50 125 42 93 77 209 90 295 13 88
5 242 -16 297 -5 13 -7 23 -4 23 6 0 -41 130 -65 180 -28 55 -71 120 -122 181
l-38 46 109 164 c212 317 384 512 694 783 78 68 171 152 207 187 75 71 177
141 235 159 22 7 56 21 75 30 19 10 76 34 125 54 59 24 99 48 117 68 20 23 48
37 125 60 54 16 106 31 115 33 9 2 51 13 93 25 42 12 84 23 93 25 9 1 35 8 57
13 22 6 87 20 145 32 58 12 112 23 121 25 9 2 34 6 55 9 34 6 60 10 126 22 9
1 38 6 65 10 26 3 56 8 66 10 10 2 45 6 78 9 33 4 69 8 79 10 101 19 581 26
855 11 77 -4 175 -9 219 -11 100 -5 111 -17 108 -114 -1 -48 -59 -163 -132
-261 -108 -145 -152 -218 -264 -443 -59 -119 -112 -217 -117 -217 -5 0 -9 -5
-9 -11 0 -20 -118 -165 -192 -235 -79 -75 -211 -165 -293 -202 -69 -30 -185
-72 -185 -67 0 3 -11 0 -25 -5 -14 -5 -36 -12 -48 -14 -171 -36 -262 -78 -347
-159 -147 -140 -429 -574 -546 -840 -31 -71 -48 -89 -78 -78 -37 15 -219 11
-273 -5 -26 -8 -95 -36 -153 -63 -58 -27 -118 -54 -135 -60 -28 -11 -41 -14
-105 -26 -43 -8 -74 -14 -100 -20 -14 -3 -34 -7 -45 -9 -250 -47 -471 -257
-553 -528 -41 -133 -49 -345 -17 -478 3 -14 8 -35 11 -48 15 -71 80 -219 126
-286 75 -109 195 -215 303 -269 52 -25 156 -63 196 -71 13 -2 44 -9 69 -15
135 -31 511 -33 730 -5 67 9 184 51 242 86 85 53 136 115 263 322 73 120 131
181 227 242 133 85 170 133 205 266 11 42 12 262 2 313 -6 28 -12 60 -15 73
-29 142 -165 325 -319 429 -70 47 -202 115 -260 133 -22 7 -44 16 -49 21 -18
17 291 531 375 623 50 55 144 111 202 121 16 3 33 8 37 10 4 2 22 7 41 10 255
42 355 79 495 182 181 135 308 321 439 642 41 101 88 208 106 239 42 75 131
190 221 283 56 59 178 224 210 284 38 73 62 148 67 208 3 27 336 -62 491 -130
101 -44 246 -122 330 -178 162 -108 227 -170 414 -395 83 -100 346 -373 438
-455 24 -21 63 -56 87 -78 l43 -39 -20 -27 c-67 -92 -99 -197 -107 -361 -18
-334 -11 -294 -72 -470 -44 -128 -47 -141 -47 -245 0 -60 2 -121 6 -135 27
-107 76 -205 198 -395 109 -170 117 -185 149 -262 60 -147 71 -215 76 -488 3
-198 9 -298 20 -355 3 -14 8 -40 11 -59 11 -58 53 -163 84 -210 41 -64 92
-115 174 -176 80 -59 107 -87 129 -130 22 -44 15 -121 -17 -190 -23 -50 -29
-57 -48 -51 -31 9 -153 36 -203 44 -90 16 -485 5 -516 -13 -3 -2 -26 -7 -52
-10 -41 -6 -47 -4 -48 12 0 10 -2 25 -4 33 -9 43 -47 271 -52 308 -7 57 11 95
59 127 80 53 141 143 177 260 30 96 35 144 35 305 0 142 -4 198 -25 303 -17
84 -18 89 -38 157 -119 407 -343 638 -668 685 -92 14 -227 37 -348 60 -49 10
-100 19 -112 21 -13 2 -35 6 -50 9 -154 28 -591 22 -620 -8 -7 -8 -8 -20 -2
-35 9 -22 11 -23 81 -16 137 15 443 8 538 -11 14 -3 39 -7 55 -9 17 -2 64 -11
105 -20 41 -8 89 -18 105 -21 17 -2 41 -7 55 -10 14 -3 45 -8 70 -11 25 -3 52
-7 60 -9 8 -2 38 -7 65 -11 28 -3 53 -8 58 -11 4 -2 20 -7 35 -9 15 -3 61 -21
102 -41 59 -28 94 -55 163 -124 48 -48 87 -95 87 -103 0 -9 4 -16 8 -16 10 0
75 -129 101 -200 20 -56 59 -185 67 -224 69 -318 62 -529 -22 -705 -19 -39
-55 -83 -118 -144 l-91 -87 1 -78 c0 -42 4 -90 8 -107 9 -35 12 -51 21 -120 4
-27 9 -53 11 -56 1 -3 6 -28 9 -55 14 -106 26 -131 60 -124 6 1 52 11 104 21
231 49 458 43 686 -18 39 -10 77 -18 85 -18 19 0 76 96 95 159 43 143 3 227
-173 366 -107 85 -142 125 -176 203 -66 149 -92 372 -45 384 9 3 30 35 46 71
17 37 65 118 107 180 155 227 181 312 181 577 -1 118 -7 210 -20 305 -10 71
-15 106 -20 138 -7 54 -16 115 -21 145 -2 15 -6 39 -8 55 -3 15 -7 45 -11 67
-3 22 -8 56 -11 75 -3 19 -7 44 -8 55 -2 11 -7 38 -11 60 -3 22 -11 58 -17 80
-5 22 -12 48 -13 57 -27 139 -113 341 -198 468 -33 48 -172 189 -327 332 -217
198 -345 330 -503 521 -54 65 -133 152 -175 194 -142 140 -431 310 -670 395
-94 33 -210 67 -255 73 -23 4 -45 9 -49 11 -4 2 -32 7 -63 10 -71 7 -101 -9
-103 -58 -2 -49 -45 -171 -84 -235 -40 -66 -116 -163 -191 -243 -165 -176
-249 -307 -322 -505 -122 -332 -293 -565 -506 -688 -57 -34 -196 -84 -252 -92
-23 -3 -49 -8 -57 -10 -8 -2 -33 -7 -56 -10 -57 -8 -164 -39 -205 -60 -52 -27
-121 -88 -167 -147 -103 -135 -382 -612 -382 -655 0 -19 11 -25 72 -44 237
-70 456 -237 540 -411 72 -149 90 -312 54 -486 -3 -13 -16 -47 -30 -77 -25
-55 -47 -73 -176 -148 -84 -49 -125 -97 -235 -277 -42 -69 -93 -147 -113 -173
-73 -96 -184 -150 -352 -173 -192 -25 -521 -25 -650 1 -14 3 -37 7 -52 10 -15
3 -38 9 -52 15 -15 5 -26 8 -26 6 0 -8 -159 63 -202 90 -190 118 -312 319
-356 584 -8 49 -8 217 0 265 21 119 75 254 136 335 108 145 297 248 522 285
19 3 43 8 52 11 9 3 26 7 39 9 45 9 96 28 189 71 52 24 117 50 143 58 57 17
195 18 257 2 53 -14 80 -10 80 10 0 18 122 264 188 378 202 353 363 561 480
620 46 23 196 69 271 83 57 10 180 57 265 101 179 92 356 248 460 405 60 90
73 115 141 262 26 55 54 116 63 135 32 70 87 157 162 260 137 186 167 246 177
356 6 68 -19 144 -54 162 -10 6 -75 13 -143 16 -69 4 -170 9 -225 12 -103 6
-563 13 -567 8z m3154 -1521 c33 -32 85 -95 115 -141 52 -77 138 -268 149
-328 3 -15 9 -35 15 -46 5 -10 8 -18 5 -18 -2 0 0 -16 6 -36 19 -69 47 -224
63 -344 3 -25 8 -56 10 -70 2 -14 7 -52 11 -85 3 -33 8 -68 10 -79 2 -10 6
-44 10 -75 3 -31 12 -94 19 -141 12 -82 14 -373 3 -415 -3 -11 -11 -40 -18
-65 -18 -66 -59 -144 -143 -271 -41 -63 -87 -136 -101 -164 l-25 -50 -2 130
c-3 333 -28 411 -225 701 -235 347 -257 449 -155 723 49 130 59 182 66 346 10
221 15 264 40 343 17 57 64 142 78 142 5 0 36 -26 69 -57z m-6121 -511 c111
-193 141 -416 84 -618 -15 -52 -132 -350 -156 -396 -11 -22 -45 -160 -55 -223
-5 -27 -9 -259 -10 -515 -1 -256 -4 -477 -7 -492 -3 -16 -8 -47 -12 -70 -4
-24 -10 -49 -14 -56 -15 -27 -183 304 -231 458 -107 338 -138 645 -96 950 11
77 20 128 31 180 3 14 7 34 9 45 37 194 227 688 328 854 l21 33 33 -38 c18
-22 52 -72 75 -112z"/>
<path d="M6164 5218 c-17 -24 -61 -62 -109 -93 -93 -60 -126 -109 -150 -222
-26 -120 -37 -380 -23 -555 13 -159 103 -232 215 -175 58 30 123 122 163 230
12 31 25 57 29 57 4 0 29 -37 56 -82 83 -142 94 -157 127 -174 40 -21 106 -14
146 15 19 13 39 42 51 74 17 45 20 69 16 177 -3 69 -6 141 -9 160 -2 19 -7 66
-11 105 -3 38 -8 72 -10 75 -2 4 -7 21 -10 38 -37 212 -205 377 -411 405 -40
6 -43 4 -70 -35z m199 -80 c84 -42 157 -129 192 -228 28 -77 31 -95 60 -375
14 -131 2 -206 -42 -249 -21 -21 -29 -23 -51 -15 -43 16 -62 39 -100 119 -31
65 -60 104 -121 167 -31 32 -53 12 -91 -82 -44 -110 -62 -144 -96 -184 -22
-27 -32 -31 -73 -31 -26 0 -55 6 -65 13 -34 25 -38 111 -21 417 11 196 15 223
46 286 20 42 40 60 141 125 27 17 55 43 65 59 l16 28 51 -15 c28 -8 68 -24 89
-35z"/>
<path d="M989 4840 c-103 -30 -188 -120 -274 -290 -66 -132 -107 -179 -246
-285 -153 -117 -202 -193 -242 -376 -27 -121 -33 -154 -43 -234 -3 -27 -7 -61
-10 -75 -2 -14 -7 -62 -10 -107 -3 -45 -7 -90 -9 -100 -1 -10 4 -25 12 -34 12
-14 11 -22 -6 -62 -37 -85 -43 -194 -16 -282 13 -43 12 -47 -9 -70 -41 -44
-105 -188 -122 -275 -11 -56 -12 -192 -1 -230 32 -119 116 -205 221 -226 51
-10 75 -14 127 -18 131 -11 162 -19 359 -82 72 -22 104 -27 205 -28 106 -1
165 4 215 19 17 5 62 14 105 21 17 3 36 7 43 9 7 3 50 8 95 11 81 6 102 14
102 37 0 6 18 12 40 13 148 8 218 28 319 89 69 41 101 68 220 184 218 211 331
364 381 518 15 47 19 51 38 43 32 -12 159 -69 179 -80 35 -20 111 -33 247 -45
63 -5 154 -15 196 -21 11 -1 24 -3 29 -3 4 -1 6 -7 3 -15 -6 -16 49 -86 67
-86 7 0 29 18 49 39 l36 39 61 -15 c57 -15 63 -14 78 1 33 33 -16 64 -127 80
-23 3 -45 7 -49 10 -4 2 -31 7 -61 11 -30 4 -62 8 -71 10 -24 5 -114 14 -195
20 -155 11 -203 24 -360 94 -83 37 -105 56 -82 72 14 10 112 -14 242 -59 171
-59 263 -75 439 -76 81 -1 101 2 109 15 22 36 2 49 -78 50 -66 1 -99 3 -148 8
-7 0 -14 11 -14 23 -2 28 -29 49 -51 41 -10 -3 -27 -15 -39 -26 -21 -19 -27
-19 -80 -7 -32 7 -106 30 -164 50 -58 21 -123 41 -144 44 -84 14 -84 14 -68
47 28 55 18 210 -17 279 -12 23 -21 70 -25 121 -6 81 -8 96 -20 167 -25 144
-82 225 -266 378 -107 88 -143 125 -210 217 -132 179 -166 206 -354 277 -60
23 -177 68 -260 100 -82 33 -163 62 -180 65 -49 11 -138 13 -166 5z m206 -95
c44 -15 89 -31 100 -35 11 -5 76 -30 145 -55 227 -84 270 -106 344 -176 l61
-58 -53 25 c-82 39 -197 37 -268 -5 l-35 -21 -41 26 c-69 44 -157 71 -236 73
-62 2 -83 -2 -128 -24 -62 -30 -147 -105 -189 -165 -15 -22 -33 -39 -39 -37
-15 5 -99 -24 -166 -58 -159 -80 -289 -238 -326 -397 -2 -10 -6 -26 -9 -35 -3
-10 -14 -59 -24 -110 -19 -87 -69 -231 -92 -263 -9 -14 -7 59 5 150 2 14 7 49
11 79 4 30 9 63 11 75 3 12 7 35 9 51 6 39 10 54 34 147 36 140 67 183 200
277 146 104 176 140 312 385 48 86 118 157 171 172 50 15 115 9 203 -21z m175
-341 c194 -92 362 -237 426 -370 l39 -79 0 -130 c0 -71 -4 -148 -8 -170 -4
-22 -10 -98 -14 -168 -7 -148 9 -229 58 -297 16 -22 29 -46 29 -53 0 -22 -82
-93 -145 -125 -33 -16 -103 -46 -156 -66 -123 -46 -164 -74 -281 -183 -98 -92
-168 -139 -222 -149 -87 -16 -125 -20 -157 -18 -141 11 -206 38 -271 115 -243
286 -266 332 -219 434 22 50 141 159 156 143 16 -16 1 -150 -21 -194 -11 -21
-21 -60 -23 -86 -2 -43 1 -51 37 -89 38 -41 40 -42 111 -44 40 -1 87 1 105 5
l32 7 0 -63 c-1 -52 3 -67 23 -88 22 -23 63 -43 86 -41 51 5 99 26 201 86 176
105 265 145 363 164 42 8 111 56 141 97 36 49 59 125 75 243 3 17 9 45 14 63
5 17 8 32 5 32 -2 0 6 21 19 48 26 51 25 77 -1 87 -19 7 -62 -36 -62 -62 0
-10 -6 -13 -16 -9 -9 3 -21 6 -27 6 -6 0 -3 6 7 13 10 8 20 24 21 38 2 13 6
38 10 54 3 17 9 71 12 121 8 129 -10 183 -81 254 -31 30 -56 61 -56 68 0 6 -4
12 -8 12 -4 0 -13 15 -20 33 -19 54 -74 109 -159 160 -104 63 -164 83 -248 86
-62 1 -76 -2 -122 -29 -28 -16 -60 -43 -69 -60 -21 -35 -30 -37 -37 -11 -8 32
29 98 91 160 120 119 201 132 362 55z m388 -23 c95 -48 170 -147 232 -306 76
-192 132 -282 237 -379 57 -52 144 -159 171 -211 28 -52 40 -108 35 -170 -2
-27 -5 -62 -5 -77 -1 -18 -5 -25 -12 -19 -37 29 -215 44 -311 28 -22 -4 -64
-19 -93 -33 l-52 -26 -20 24 c-43 51 -64 127 -64 233 0 55 4 125 8 155 5 30
10 69 13 85 11 82 11 237 -1 283 -32 120 -124 242 -261 347 -41 32 -75 61 -75
65 0 13 73 29 117 25 23 -2 59 -13 81 -24z m-912 -192 c4 -35 30 -101 45 -113
8 -6 15 -27 17 -47 2 -34 0 -36 -40 -48 -114 -35 -212 -110 -246 -189 -17 -41
-20 -69 -20 -209 0 -90 -3 -175 -7 -190 -4 -18 -20 -37 -45 -52 -55 -34 -138
-119 -161 -163 -26 -51 -33 -114 -19 -168 13 -49 74 -149 126 -208 l32 -36
-21 -15 c-12 -8 -35 -26 -50 -40 l-29 -26 -40 45 c-138 153 -199 286 -192 416
4 65 26 121 102 258 57 101 85 184 98 280 2 17 14 64 25 105 54 196 167 326
354 408 59 26 68 25 71 -8z m443 -5 c75 -37 163 -110 187 -156 9 -16 45 -64
81 -105 93 -106 112 -171 89 -303 -12 -73 -17 -95 -22 -109 -2 -8 2 -24 10
-37 15 -22 15 -22 -17 -20 -46 4 -109 -20 -154 -59 l-40 -34 11 47 c8 36 22
57 58 90 96 88 109 228 30 312 -35 37 -77 100 -92 140 -46 119 -149 158 -254
96 -25 -15 -46 -31 -46 -35 0 -5 -12 -11 -27 -15 -16 -3 -45 -10 -66 -15 -37
-9 -39 -8 -52 22 -22 53 -3 129 41 168 68 60 157 64 263 13z m821 -58 c175
-141 231 -226 255 -391 4 -22 8 -50 10 -63 3 -18 -10 -10 -66 40 -83 74 -148
157 -189 242 -53 108 -108 246 -96 239 6 -4 45 -34 86 -67z m-790 -136 c22
-12 59 -82 60 -112 0 -10 23 -40 50 -67 49 -48 80 -108 75 -143 -5 -29 -26
-88 -34 -92 -4 -3 -8 11 -9 30 -3 84 -61 141 -132 131 -45 -6 -65 17 -50 58
21 54 -14 162 -58 180 -14 6 -12 9 13 20 32 14 52 13 85 -5z m-130 -85 c20
-18 34 -60 25 -75 -3 -5 -25 2 -48 17 -61 38 -125 40 -169 3 -30 -25 -33 -33
-33 -84 0 -31 -3 -56 -7 -56 -3 0 -20 -11 -36 -24 l-29 -25 3 74 c4 125 35
164 144 180 25 4 47 9 50 12 10 10 82 -6 100 -22z m-347 -47 c-15 -43 -21
-186 -10 -241 4 -17 2 -25 -4 -21 -14 8 -84 -70 -110 -122 -36 -75 -31 -153
12 -208 25 -32 21 -39 -16 -30 -48 12 -54 46 -49 269 2 110 6 210 8 223 6 28
41 79 76 110 19 17 96 62 106 62 1 0 -5 -19 -13 -42z m280 -69 c50 -25 107
-67 107 -78 0 -5 -18 0 -39 11 -77 38 -130 25 -132 -31 l-1 -26 -13 30 c-26
56 -15 115 22 115 8 0 33 -10 56 -21z m47 -136 l29 -16 -29 -42 c-16 -23 -36
-48 -46 -55 -16 -14 -16 -11 -11 40 4 30 7 63 7 73 0 21 14 22 50 0z m215
-108 c-10 -75 -12 -86 -25 -132 -16 -52 -40 -74 -105 -98 -27 -10 -73 -31
-101 -46 -64 -36 -109 -42 -154 -19 -32 17 -67 56 -58 66 2 2 16 -3 31 -11 35
-18 105 -13 139 9 14 9 45 52 67 95 22 42 50 86 61 96 28 25 52 72 57 109 1
16 8 35 15 43 10 12 17 8 45 -24 31 -35 33 -42 28 -88z m-335 75 c-5 -17 -9
-33 -9 -36 1 -3 -2 -8 -5 -11 -9 -10 -7 23 4 51 13 36 20 33 10 -4z m-91 -27
c-7 -41 46 -123 78 -123 12 0 25 -4 28 -10 3 -5 17 -10 31 -10 30 0 30 -11 -1
-48 -33 -39 -68 -45 -108 -18 -38 25 -76 95 -72 133 4 39 22 83 35 83 5 0 9
-3 9 -7z m-106 -115 c3 -26 10 -56 16 -66 7 -13 7 -22 -1 -30 -15 -15 0 -85
29 -130 47 -72 141 -105 221 -76 20 8 69 29 107 48 39 19 71 30 73 25 6 -16
-49 -78 -97 -108 -52 -34 -137 -59 -186 -56 -49 4 -99 32 -119 68 -11 17 -43
68 -72 112 -60 91 -67 116 -47 164 13 35 62 105 68 99 1 -2 5 -24 8 -50z m833
-107 c-3 -9 -8 -34 -11 -56 -22 -159 -55 -236 -122 -281 -28 -19 -114 -46
-192 -60 -31 -6 -54 -19 -224 -123 -154 -93 -169 -96 -207 -36 -19 30 -19 31
0 63 18 30 98 78 160 97 47 14 135 57 166 81 17 13 72 77 123 143 120 158 162
188 259 188 43 0 51 -3 48 -16z m622 -196 l43 -7 -48 -30 c-72 -45 -141 -116
-235 -243 -129 -173 -201 -234 -333 -285 -17 -7 -37 -13 -45 -15 -8 -2 -35 -8
-60 -15 -43 -12 -55 -15 -101 -25 -110 -24 -234 -78 -285 -124 -16 -15 -56
-59 -87 -98 -120 -151 -180 -156 -327 -29 -51 44 -80 61 -135 77 -107 32 -148
49 -174 72 -27 25 -51 76 -51 109 0 37 39 106 73 127 l32 20 55 -58 c91 -95
170 -121 353 -117 179 5 233 30 383 181 92 93 137 121 266 171 181 70 228 97
301 174 68 71 126 107 191 117 17 3 32 6 33 7 5 5 109 -1 151 -9z m-1433 -114
c7 -7 37 -21 65 -31 51 -17 52 -18 29 -30 -13 -7 -36 -24 -51 -38 -16 -14 -28
-21 -28 -15 0 6 -14 9 -32 7 -214 -25 -262 1 -211 116 22 48 29 69 32 90 1 3
22 5 49 4 26 -1 54 2 62 6 11 6 22 -5 43 -43 15 -29 34 -58 42 -66z m1489 -13
c25 -2 27 -5 22 -33 -11 -57 -95 -210 -159 -290 -59 -73 -297 -312 -357 -359
-98 -77 -239 -123 -364 -120 -75 2 -154 11 -178 19 -7 2 -30 7 -52 10 -70 10
-71 16 -19 71 58 60 175 119 278 140 151 30 283 75 349 119 66 44 103 84 233
251 113 146 189 220 208 204 7 -5 24 -11 39 -12z m-2129 -238 c50 -71 147
-180 161 -180 6 0 10 -25 11 -59 0 -47 7 -71 29 -108 15 -26 35 -54 43 -60 33
-27 99 -62 122 -67 81 -15 156 -54 235 -121 106 -91 191 -98 284 -24 28 22 54
38 59 35 4 -3 23 -8 42 -11 19 -4 41 -8 49 -10 8 -2 21 -4 28 -4 6 -1 12 -5
12 -9 0 -5 -6 -9 -12 -9 -13 -1 -49 -7 -98 -18 -122 -27 -186 -37 -250 -36
-78 0 -85 1 -160 21 -25 7 -49 13 -55 14 -5 2 -55 16 -110 34 -106 32 -132 38
-235 47 -210 19 -278 61 -312 195 -27 107 -10 213 54 345 34 69 51 96 58 87 4
-4 24 -32 45 -62z"/>
<path d="M9003 4081 c-39 -25 -46 -46 -49 -151 -3 -132 -29 -207 -83 -234 -54
-28 -105 -7 -233 98 -98 81 -153 105 -252 110 -88 6 -173 -20 -241 -72 -57
-42 -135 -152 -135 -188 0 -13 -16 -45 -35 -70 -47 -62 -65 -96 -71 -142 -7
-48 24 -92 64 -92 25 0 47 6 185 45 85 25 118 29 207 28 91 -1 143 -14 365
-93 144 -52 212 -66 315 -69 88 -2 136 13 167 52 21 28 23 62 8 162 -18 116
-10 157 56 292 45 93 52 117 53 169 1 51 -3 66 -26 96 -38 50 -89 71 -183 75
-67 4 -85 1 -112 -16z m184 -65 c36 -18 58 -47 68 -89 6 -21 -5 -53 -49 -145
-59 -125 -69 -159 -69 -237 0 -46 2 -66 18 -147 5 -24 0 -30 -41 -54 -41 -24
-52 -26 -112 -21 -104 10 -105 10 -302 82 -80 29 -161 56 -180 60 -89 16 -109
18 -170 18 -71 1 -142 -7 -205 -23 -22 -6 -51 -13 -64 -16 -13 -3 -32 -9 -42
-14 -33 -18 -59 -12 -59 13 0 26 19 57 63 104 17 19 32 46 33 61 6 85 115 193
222 219 90 23 214 -8 282 -69 111 -101 170 -137 233 -142 57 -4 95 10 139 52
51 48 70 102 73 209 2 106 7 118 53 142 42 22 64 21 109 -3z"/>
<path d="M3366 3931 c-107 -57 -156 -125 -156 -218 0 -59 20 -110 88 -226 40
-67 70 -132 77 -167 9 -39 28 -85 45 -110 39 -55 63 -61 222 -54 253 11 325 6
430 -31 90 -30 147 -65 199 -120 42 -44 54 -51 99 -60 52 -10 104 91 116 225
6 61 4 69 -26 117 -31 50 -32 57 -34 161 -1 98 -3 112 -26 145 -31 46 -74 67
-137 67 -52 0 -92 -18 -239 -104 -85 -50 -157 -57 -225 -22 -90 45 -85 40
-148 176 -11 24 -39 50 -93 86 -94 61 -87 54 -92 90 -10 74 -28 82 -100 45z
m81 -159 c16 -10 49 -29 75 -41 42 -20 51 -30 88 -106 36 -73 48 -89 97 -121
67 -45 128 -64 201 -64 45 0 68 7 121 36 36 20 68 39 71 43 13 19 109 63 147
68 39 5 45 3 78 -30 31 -31 42 -59 36 -91 -1 -5 -2 -39 -3 -76 0 -53 5 -77 26
-119 28 -54 34 -96 22 -141 -4 -14 -8 -29 -10 -35 -18 -73 -35 -75 -101 -15
-77 70 -168 112 -295 138 -45 9 -271 9 -380 0 -128 -10 -154 10 -190 145 -13
51 -37 105 -71 159 -83 132 -98 200 -57 261 12 19 35 43 52 55 l31 22 17 -34
c10 -19 30 -43 45 -54z"/>
<path d="M6400 3243 c-8 -3 -23 -13 -34 -22 -10 -9 -30 -16 -44 -16 -58 0 -81
-141 -57 -360 20 -196 44 -236 133 -230 154 11 188 26 210 91 17 50 23 343 8
402 -26 101 -130 166 -216 135z m86 -71 c11 -9 32 -35 45 -57 21 -36 24 -51
23 -140 -1 -131 -9 -217 -23 -243 -11 -20 -55 -40 -111 -48 -32 -6 -69 23 -71
54 -2 27 -6 62 -14 122 -9 62 -10 202 -2 240 3 14 6 28 6 33 1 4 10 7 21 7 10
0 30 11 44 25 29 29 53 31 82 7z"/>
<path d="M5988 3208 c-25 -9 -32 -18 -30 -39 1 -4 -9 -6 -21 -5 -59 3 -118
-272 -82 -389 25 -86 81 -136 155 -140 103 -7 184 114 197 296 9 133 -24 235
-87 269 -28 15 -100 19 -132 8z m110 -92 c29 -29 49 -98 47 -161 -3 -58 -39
-188 -58 -203 -6 -6 -40 -13 -75 -16 l-63 -6 -16 37 c-22 53 -22 135 -2 228
15 68 47 164 49 143 0 -3 12 -3 28 2 35 10 61 3 90 -24z"/>
<path d="M5538 3179 c-20 -11 -37 -39 -44 -72 -22 -99 -23 -158 -10 -357 14
-202 39 -260 112 -260 79 0 163 65 180 141 12 52 10 137 -3 199 -8 36 -16 74
-18 85 -12 52 -49 171 -58 183 -6 8 -6 12 1 12 16 0 23 31 11 46 -7 8 -26 13
-43 12 -18 -1 -37 2 -44 6 -22 13 -66 16 -84 5z m109 -99 c-1 -32 5 -63 33
-170 42 -163 42 -217 1 -298 -25 -49 -35 -56 -66 -48 -25 6 -43 31 -50 67 -10
49 -19 205 -19 318 1 117 2 125 24 143 12 10 35 17 50 16 22 -2 27 -7 27 -28z"/>
<path d="M8504 3172 c-66 -7 -104 -81 -98 -188 7 -99 13 -123 40 -140 31 -21
98 -25 144 -9 64 22 136 12 260 -38 138 -56 158 -60 198 -40 44 21 79 80 116
196 45 138 44 140 -65 152 -31 3 -71 10 -88 15 -17 5 -31 6 -31 2 0 -4 -5 1
-11 11 -11 19 -44 23 -55 6 -4 -8 -30 -9 -78 -5 -67 6 -83 8 -146 21 -21 4
-81 12 -140 19 -8 1 -29 0 -46 -2z m220 -98 c17 -3 76 -7 131 -10 55 -2 130
-10 168 -17 37 -8 67 -11 67 -8 0 3 5 0 11 -6 14 -14 -43 -162 -74 -191 -27
-26 -36 -25 -152 22 -50 20 -101 39 -115 43 -31 7 -129 8 -192 0 -44 -5 -50
-3 -74 26 -21 25 -25 38 -20 66 13 83 74 118 164 94 30 -8 69 -16 86 -19z"/>
<path d="M6759 3159 c-8 -5 -21 -6 -30 -4 -33 11 -38 -18 -40 -241 -2 -193 0
-223 15 -246 22 -34 67 -52 113 -45 150 25 213 355 94 491 -34 38 -121 65
-152 45z m68 -78 c44 -18 77 -87 75 -155 -1 -28 -9 -82 -19 -121 -15 -58 -22
-70 -38 -69 -39 2 -78 13 -85 24 -7 11 -2 306 5 327 4 14 19 12 62 -6z"/>
<path d="M4915 3055 c-124 -113 -123 -112 -131 -161 -6 -42 -1 -139 10 -191 4
-20 8 -53 22 -188 25 -251 37 -295 91 -323 75 -40 134 39 150 203 15 157 3
540 -22 684 -5 28 -7 31 -31 35 -13 3 -43 -17 -89 -59z m70 -120 c5 -33 9
-175 10 -316 2 -290 -7 -356 -48 -343 -40 12 -41 13 -51 144 -4 41 -8 89 -11
105 -2 17 -6 50 -10 75 -3 25 -10 72 -16 104 -13 72 -15 153 -4 185 9 28 107
123 116 113 4 -4 10 -34 14 -67z"/>
<path d="M7733 3113 c-13 -3 -28 -12 -35 -22 -7 -10 -16 -19 -21 -19 -31 -2
-32 -5 -42 -212 -13 -287 -15 -456 -5 -486 16 -45 70 -94 110 -99 62 -8 121
38 141 110 12 43 14 58 25 205 4 52 8 111 10 130 11 109 12 269 2 302 -17 58
-57 90 -115 92 -26 2 -58 1 -70 -1z m53 -84 c40 -12 76 -51 77 -81 0 -20 -7
-131 -18 -258 -2 -25 -7 -76 -10 -115 -12 -157 -14 -175 -20 -185 -8 -13 -94
-3 -114 13 -12 11 -11 172 4 472 2 33 4 83 4 110 1 45 4 51 24 53 12 1 36 -3
53 -9z"/>
<path d="M7090 3050 c-11 -11 -21 -32 -21 -47 -1 -16 -3 -37 -4 -48 -15 -101
-22 -313 -12 -357 12 -58 58 -98 111 -98 36 0 75 46 92 109 8 31 33 112 55
181 45 142 52 182 38 214 -19 41 -46 50 -172 61 -58 4 -70 2 -87 -15z m152
-62 c31 1 43 -34 29 -83 -25 -84 -84 -273 -92 -294 -8 -20 -12 -21 -26 -10
-27 23 -42 74 -38 125 2 27 7 87 11 134 3 47 8 94 9 105 2 11 4 24 4 29 1 5
20 5 44 1 23 -4 50 -7 59 -7z"/>
<path d="M3507 3040 c-15 -12 -25 -25 -23 -29 2 -3 7 -26 11 -51 4 -25 8 -48
11 -51 8 -13 17 -85 18 -139 1 -47 4 -56 26 -67 49 -25 119 -53 132 -53 8 0
18 -4 23 -9 22 -20 197 -70 266 -76 109 -9 128 -12 190 -34 95 -32 148 -17
173 51 18 52 27 101 31 190 3 54 1 71 -15 90 -17 22 -25 23 -157 24 -163 2
-193 9 -338 79 -187 90 -298 114 -348 75z m98 -50 c3 -5 14 -10 24 -10 10 0
69 -25 132 -56 198 -98 226 -106 372 -107 156 -2 160 -5 160 -112 0 -50 -5
-67 -23 -85 -10 -10 -27 -17 -37 -16 -29 6 -133 16 -211 21 -105 7 -191 31
-346 97 l-80 34 -2 75 c-1 41 -9 93 -17 116 -12 31 -13 43 -4 47 19 7 25 7 32
-4z"/>
<path d="M5221 3046 c-7 -8 -19 -12 -29 -10 -9 2 -22 1 -28 -3 -40 -27 -53
-708 -14 -747 16 -16 160 -11 201 6 20 9 49 32 64 52 24 32 28 46 28 109 0 40
-3 101 -6 137 -4 36 -9 110 -11 166 -3 55 -8 107 -10 115 -3 8 -7 25 -10 39
-5 31 -30 89 -49 112 -29 36 -114 51 -136 24z m83 -87 c36 -42 49 -111 61
-319 10 -172 10 -186 -9 -228 -19 -43 -44 -58 -106 -68 -37 -6 -39 -5 -47 22
-16 62 -8 506 11 599 3 11 5 23 5 26 2 16 64 -7 85 -32z"/>
<path d="M8168 3042 c-36 -2 -52 -9 -67 -28 -23 -30 -56 -114 -65 -164 -3 -19
-10 -62 -16 -95 -31 -182 -33 -449 -4 -612 7 -40 35 -48 81 -22 112 63 205
207 238 368 19 89 26 327 13 401 -25 136 -55 161 -180 152z m109 -127 c13 -39
12 -313 -1 -380 -14 -67 -39 -142 -62 -188 -27 -53 -117 -152 -131 -144 -13 8
-16 55 -17 222 -1 157 0 166 35 335 40 198 45 211 73 206 13 -2 29 0 37 5 21
13 51 -12 66 -56z"/>
<path d="M7446 3017 c-10 -7 -16 -17 -15 -22 2 -6 -5 -26 -16 -45 -14 -27 -19
-59 -20 -145 -1 -82 -7 -128 -24 -181 -37 -119 -33 -174 13 -220 25 -25 43
-34 68 -34 57 0 91 44 103 132 13 100 15 131 19 291 5 168 5 168 -18 177 -13
5 -26 16 -29 24 -4 9 -10 15 -14 14 -4 -1 -18 3 -29 9 -16 10 -25 9 -38 0z
m61 -229 c-3 -84 -8 -164 -10 -178 -2 -14 -8 -50 -12 -80 -10 -75 -14 -82 -45
-67 -35 18 -35 75 3 168 29 73 33 103 23 209 -4 46 15 100 35 100 8 0 10 -45
6 -152z"/>
<path d="M4513 2966 c-24 -26 -49 -86 -63 -146 -10 -44 -7 -323 4 -410 20
-152 25 -176 48 -234 22 -57 68 -111 107 -124 75 -25 152 7 170 72 8 31 7 137
-3 189 -3 16 -6 78 -7 139 -2 133 -13 180 -68 284 -36 66 -43 91 -47 148 -4
72 -13 87 -44 79 -25 -7 -28 -19 -26 -89 1 -45 10 -77 38 -134 70 -143 73
-157 83 -350 5 -100 10 -145 20 -181 6 -20 -42 -66 -78 -74 -37 -10 -61 13
-84 79 -19 56 -21 65 -28 116 -13 91 -15 126 -20 280 -5 171 0 209 37 285 26
53 29 73 15 82 -22 14 -35 11 -54 -11z"/>
<path d="M9772 2936 l-30 -35 -269 2 -268 2 -3 -27 c-2 -18 2 -28 15 -32 10
-3 198 -8 418 -11 509 -8 638 -13 735 -30 14 -3 41 -7 60 -10 19 -4 89 -22
155 -41 66 -19 136 -38 155 -41 38 -8 240 -9 357 -2 101 6 108 -3 109 -126 0
-61 -3 -95 -10 -96 -18 -1 -246 3 -316 6 -60 3 -145 11 -180 19 -8 1 -33 6
-55 10 -22 5 -67 15 -100 23 -33 8 -67 16 -75 18 -8 2 -35 8 -60 15 -48 13
-59 15 -111 24 -19 3 -45 8 -59 11 -14 3 -43 7 -65 10 -22 3 -51 7 -64 10 -22
4 -68 10 -166 20 -197 21 -649 24 -685 5 -14 -7 -20 -19 -18 -33 3 -22 4 -22
253 -23 219 -1 407 -8 462 -18 10 -2 45 -7 78 -10 33 -4 76 -10 95 -13 43 -7
71 -11 88 -12 7 -1 12 -15 12 -37 0 -55 28 -98 56 -87 16 6 54 68 54 88 0 11
10 10 58 -2 31 -8 64 -16 72 -18 8 -2 51 -12 95 -23 44 -12 99 -23 122 -27 23
-3 57 -8 75 -11 18 -2 121 -7 228 -9 107 -2 205 -6 217 -9 74 -16 111 -17 119
-4 14 22 12 32 -20 65 -29 32 -29 35 -30 143 -1 106 -2 110 -29 137 -27 28
-28 28 -145 25 -259 -6 -308 -6 -337 0 -52 10 -159 38 -185 48 -14 5 -37 12
-52 14 -15 3 -31 7 -35 9 -5 3 -32 8 -62 12 -30 4 -63 9 -75 11 -35 7 -185 16
-301 19 -60 2 -126 3 -145 4 -31 1 -37 5 -45 34 -15 47 -52 49 -93 3z"/>
<path d="M8598 2789 c-10 -6 -18 -7 -18 -4 0 4 -15 -3 -33 -14 -19 -11 -37
-18 -40 -15 -3 3 -15 3 -26 -1 -17 -5 -20 -15 -20 -78 0 -40 -2 -81 -4 -92
-16 -81 78 -132 166 -90 39 18 121 100 130 130 22 71 12 123 -28 149 -30 19
-104 28 -127 15z m96 -80 c17 -15 -6 -62 -53 -109 -48 -48 -79 -63 -101 -50
-17 11 -15 120 3 137 34 35 123 48 151 22z"/>
<path d="M4011 2489 c-33 -54 -18 -114 39 -163 68 -57 161 -59 204 -4 26 34
28 86 4 101 -110 66 -151 87 -170 86 -13 -1 -31 2 -40 6 -13 5 -22 -2 -37 -26z
m179 -133 c-43 -20 -142 48 -127 88 5 11 20 5 77 -32 62 -41 68 -48 50 -56z"/>
</g>
</svg>
