<?xml version="1.0" standalone="no"?>
<!DOCTYPE svg PUBLIC "-//W3C//DTD SVG 20010904//EN"
 "http://www.w3.org/TR/2001/REC-SVG-20010904/DTD/svg10.dtd">
<svg version="1.0" xmlns="http://www.w3.org/2000/svg"
 width="1205.000000pt" height="1205.000000pt" viewBox="0 0 1205.000000 1205.000000"
 preserveAspectRatio="xMidYMid meet">
<metadata>
Created by potrace 1.11, written by Peter Selinger 2001-2013
</metadata>
<g transform="translate(0.000000,1205.000000) scale(0.100000,-0.100000)"
fill="#000000" stroke="none">
<path d="M6308 9755 c-2 -2 -41 -6 -88 -9 -124 -9 -236 -21 -300 -31 -14 -2
-43 -6 -65 -10 -23 -3 -52 -7 -65 -10 -13 -3 -42 -7 -65 -10 -22 -3 -47 -8
-55 -10 -8 -2 -31 -7 -50 -10 -29 -5 -123 -24 -200 -40 -14 -3 -92 -21 -132
-31 -10 -2 -26 -6 -35 -8 -16 -4 -162 -42 -188 -50 -5 -1 -30 -8 -55 -15 -135
-38 -169 -53 -215 -97 -26 -24 -51 -44 -56 -44 -5 0 -28 -9 -52 -19 -23 -11
-86 -36 -140 -56 -116 -44 -187 -89 -294 -187 -43 -39 -132 -118 -198 -176
-478 -416 -821 -873 -1054 -1400 -57 -130 -170 -463 -185 -547 -3 -17 -10 -45
-15 -62 -5 -18 -8 -33 -6 -33 3 0 0 -11 -5 -24 -5 -14 -11 -49 -14 -78 -3 -29
-8 -64 -11 -77 -24 -120 -24 -454 0 -596 3 -16 7 -43 10 -60 3 -16 7 -41 10
-55 3 -14 7 -36 10 -50 7 -36 44 -181 54 -210 13 -36 22 -64 23 -70 1 -3 19
-47 40 -99 52 -124 109 -236 170 -335 49 -80 50 -81 36 -121 -7 -22 -13 -43
-13 -47 0 -3 -3 -10 -7 -14 -5 -4 -8 -14 -8 -21 0 -8 -8 -33 -19 -56 -47 -106
-136 -365 -146 -426 -3 -19 -8 -37 -10 -41 -9 -15 -19 -141 -18 -225 4 -242
113 -454 246 -481 86 -17 148 -3 184 42 29 37 36 71 47 239 3 50 13 108 21
129 22 53 102 128 164 154 28 11 51 19 51 17 0 -2 -19 -15 -42 -29 -87 -52
-139 -117 -154 -191 -19 -94 0 -158 91 -315 24 -41 57 -115 75 -165 38 -112
68 -157 115 -179 l37 -18 -21 -22 c-23 -25 -33 -79 -20 -113 10 -26 5 -27 -54
-12 l-42 10 0 54 c0 43 -5 59 -22 77 -20 20 -33 22 -124 23 -83 1 -103 4 -110
18 -32 57 -90 70 -152 34 -31 -19 -47 -23 -60 -16 -9 6 -17 8 -17 5 0 -2 -51
14 -112 36 -62 22 -124 42 -137 44 -38 8 -38 9 -36 91 1 78 -15 164 -40 213
-8 15 -16 63 -19 107 -7 96 -14 145 -28 198 -6 22 -12 45 -14 50 -7 32 -47
107 -79 150 -21 28 -80 86 -133 130 -161 135 -173 147 -258 260 -99 131 -118
152 -164 187 -44 33 -130 81 -130 72 0 -4 -6 -2 -12 4 -7 5 -47 22 -88 37
-155 57 -198 74 -300 114 -133 52 -148 56 -245 56 -68 0 -89 -5 -138 -29 -101
-50 -159 -117 -280 -327 -62 -107 -119 -171 -217 -244 -77 -57 -155 -143 -192
-211 -24 -45 -70 -201 -82 -284 -3 -19 -8 -46 -11 -60 -5 -23 -9 -52 -20 -140
-10 -79 -18 -179 -20 -245 -1 -38 -9 -97 -17 -130 -18 -77 -14 -221 8 -257 3
-5 -1 -17 -9 -26 -43 -50 -102 -189 -124 -292 -9 -45 -9 -215 0 -260 13 -59
58 -139 103 -180 75 -69 137 -91 287 -105 90 -8 125 -13 192 -30 33 -8 68 -17
78 -20 9 -2 21 -6 26 -9 11 -7 112 -35 171 -47 48 -10 189 -13 230 -4 14 3 41
8 60 11 19 3 43 7 52 10 20 6 53 13 97 20 18 3 43 8 55 10 11 3 59 7 106 11
67 4 90 10 107 26 13 11 37 21 55 23 211 14 350 95 595 345 155 159 227 254
294 389 l40 80 59 -30 c33 -17 62 -30 65 -30 3 0 10 -2 17 -5 61 -19 91 -25
138 -30 110 -11 146 -15 215 -20 69 -6 71 -7 121 -61 43 -46 55 -54 87 -54 28
0 46 8 74 33 35 31 41 33 78 25 22 -5 55 -7 73 -4 30 4 32 3 32 -25 0 -52 41
-80 210 -143 85 -32 164 -60 175 -62 60 -14 71 -16 80 -17 6 0 10 -30 10 -68
0 -59 4 -73 30 -110 17 -24 53 -57 80 -74 42 -26 58 -30 119 -30 78 0 110 15
148 67 26 38 32 114 11 146 -8 13 -13 24 -11 25 2 1 19 16 38 34 l35 32 1 -27
c4 -116 20 -217 54 -338 16 -58 77 -134 128 -159 112 -56 256 2 278 113 6 31
7 31 35 17 81 -42 161 -10 200 82 13 32 14 32 39 16 41 -27 201 -23 263 7 74
35 127 117 122 188 -2 25 -1 26 27 11 91 -49 270 50 299 165 l11 45 32 -23
c71 -54 166 -68 231 -34 32 18 86 71 103 103 l11 20 6 -20 c16 -52 52 -110 79
-126 24 -14 45 -17 100 -14 39 3 82 7 96 10 14 2 39 7 55 11 17 3 45 17 63 31
33 25 34 25 47 5 21 -28 80 -54 128 -54 59 1 109 25 151 74 32 36 36 39 37 20
1 -12 2 -25 3 -29 1 -5 5 -25 9 -46 9 -42 55 -101 98 -123 15 -7 48 -14 73
-14 39 0 52 6 88 37 23 21 39 33 36 27 -11 -17 11 -93 35 -125 51 -71 142 -92
212 -51 42 26 45 26 45 9 0 -22 60 -87 98 -106 79 -39 187 -5 234 75 11 19 21
34 23 34 1 0 2 -12 2 -27 -1 -24 4 -69 17 -173 9 -71 42 -100 108 -94 91 8
227 138 283 270 24 56 52 149 54 180 1 6 21 -8 45 -32 43 -44 59 -49 133 -46
73 3 203 108 235 189 8 22 15 61 14 87 -1 25 -1 46 0 46 1 0 33 -13 71 -29
116 -47 176 -35 244 49 24 30 35 37 45 29 8 -7 125 -12 321 -15 421 -6 711
-13 753 -19 19 -2 55 -7 80 -10 84 -10 135 -21 245 -55 39 -12 81 -23 95 -26
14 -3 43 -9 65 -14 22 -6 121 -9 220 -7 l180 2 0 -46 0 -47 -165 4 c-91 1
-178 5 -195 8 -16 2 -50 7 -75 11 -25 3 -53 8 -62 11 -9 3 -26 7 -37 9 -40 9
-56 13 -136 34 -44 11 -93 22 -110 25 -30 6 -57 11 -105 21 -14 3 -45 8 -70
11 -25 3 -54 8 -65 10 -11 2 -45 6 -75 10 -30 3 -71 7 -90 9 -175 22 -674 26
-723 6 -37 -14 -62 -68 -53 -115 10 -51 52 -77 114 -69 126 15 541 3 712 -21
19 -3 61 -8 92 -12 47 -5 59 -10 64 -28 3 -11 12 -36 20 -53 34 -75 130 -79
175 -7 11 19 23 34 26 34 2 0 39 -9 81 -19 43 -11 93 -23 112 -26 19 -3 53
-10 75 -15 87 -19 127 -22 300 -25 183 -4 234 -7 316 -23 25 -5 54 -6 65 -2
69 26 79 128 16 177 -11 9 -14 30 -13 86 3 99 -13 158 -52 195 -43 41 -85 50
-197 44 -144 -8 -280 -8 -325 0 -22 4 -84 21 -138 37 -85 26 -155 43 -247 57
-49 8 -127 13 -285 20 l-160 6 -33 34 c-31 32 -51 39 -97 34 -21 -2 -75 -37
-87 -55 -4 -7 -50 -10 -130 -9 -68 1 -174 2 -236 3 l-114 1 8 33 c16 63 9 99
-25 129 -20 18 -43 28 -64 29 -17 0 -43 3 -57 5 -14 3 -33 6 -42 7 -34 6 -26
12 15 15 53 3 69 6 85 15 6 5 12 6 12 2 0 -11 55 23 76 47 11 12 25 35 31 49
12 27 10 123 -2 169 -6 26 -8 113 -3 141 2 8 22 53 44 100 60 122 67 145 69
207 2 66 -9 105 -40 147 -28 37 -108 83 -161 90 -21 4 -48 8 -60 10 -31 5
-115 -13 -152 -32 -58 -31 -76 -73 -77 -183 -4 -245 -53 -259 -260 -75 -66 59
-138 85 -250 90 -132 7 -230 -32 -324 -126 -49 -50 -109 -145 -115 -182 -1 -7
-20 -42 -42 -77 -81 -131 -83 -220 -8 -279 37 -29 95 -27 217 10 189 56 282
57 438 4 41 -14 79 -27 84 -29 6 -1 23 -8 38 -14 55 -23 182 -62 200 -62 10 0
16 -4 12 -10 -6 -9 -53 -7 -130 6 -22 4 -49 8 -60 10 -11 1 -40 6 -65 10 -154
26 -241 -12 -271 -116 -7 -25 -13 -46 -15 -48 -1 -2 -17 7 -37 18 -45 27 -163
34 -207 12 -34 -16 -67 -64 -92 -132 l-16 -45 -2 35 c-4 94 -30 154 -86 196
-42 33 -121 43 -188 24 -53 -15 -136 -87 -136 -119 l0 -22 -21 20 c-19 17 -55
31 -94 36 -5 1 -25 -5 -44 -12 -29 -11 -37 -11 -48 0 -12 11 -3 19 55 45 54
25 74 30 98 23 47 -13 85 -4 118 29 29 28 31 35 31 103 0 39 -4 108 -8 152 -4
44 -10 105 -12 135 -3 30 -7 69 -10 85 -2 17 -7 53 -11 80 -11 79 -11 166 0
209 8 36 82 123 93 112 3 -2 23 2 45 10 40 14 241 14 298 0 72 -18 266 -25
340 -13 119 19 237 103 286 203 30 62 36 62 43 3 2 -13 56 -42 81 -44 14 -1
44 4 67 11 24 7 62 16 85 19 24 4 63 10 87 15 56 10 320 10 368 0 21 -5 54
-11 73 -14 56 -8 92 -16 144 -33 73 -24 112 -11 154 52 83 128 105 267 59 369
-32 69 -54 94 -158 177 -100 79 -150 133 -177 186 -20 39 -54 136 -58 163 -1
8 -5 31 -8 50 -16 86 -15 101 5 121 11 11 35 52 53 92 18 40 52 99 76 132 113
161 156 241 185 340 25 88 30 134 30 305 0 134 -4 189 -20 320 -2 14 -6 50 -9
80 -4 30 -9 62 -11 70 -2 8 -7 35 -10 60 -3 25 -8 56 -10 70 -7 48 -18 124
-30 205 -4 28 -16 91 -27 140 -11 50 -21 97 -23 105 -1 8 -9 35 -16 60 -7 25
-13 47 -14 50 -8 39 -56 163 -87 225 -82 165 -169 268 -414 490 -189 171 -354
342 -503 520 -215 255 -346 362 -601 493 -177 91 -275 129 -455 178 -137 38
-235 52 -282 41 -55 -13 -82 -41 -89 -89 -9 -60 -12 -73 -23 -113 -6 -22 -21
-56 -32 -75 -11 -19 -17 -26 -13 -15 3 11 8 57 10 101 3 71 0 88 -22 132 -39
78 -68 91 -211 98 -65 3 -149 8 -188 10 -85 5 -673 13 -677 9z m612 -200 c85
-4 186 -8 223 -10 38 -2 71 -6 73 -8 3 -3 6 -19 6 -35 1 -45 -43 -127 -139
-258 -107 -146 -148 -215 -250 -424 -44 -91 -104 -200 -133 -243 -125 -187
-330 -357 -515 -427 -16 -6 -106 -32 -198 -56 -93 -24 -195 -58 -227 -74 -129
-65 -268 -231 -496 -590 -35 -56 -90 -157 -151 -280 -32 -63 -62 -118 -66
-121 -5 -3 -25 -3 -46 1 -42 8 -124 6 -190 -5 -42 -6 -184 -58 -206 -74 -43
-33 -202 -82 -345 -106 -19 -3 -53 -11 -75 -17 -22 -6 -47 -13 -55 -14 -39 -7
-181 -88 -233 -132 -167 -142 -266 -319 -304 -547 -14 -82 -7 -301 12 -382 3
-13 7 -31 9 -40 13 -57 53 -159 91 -230 65 -123 142 -213 256 -302 75 -58 279
-142 377 -156 15 -3 38 -7 52 -10 122 -26 576 -26 715 0 17 3 48 11 70 17 22
5 51 12 63 14 51 10 156 71 215 125 37 34 89 98 127 158 147 230 166 256 223
302 31 25 78 57 103 70 54 27 124 102 151 161 18 38 33 92 48 168 6 28 7 192
1 230 -2 14 -6 50 -11 80 -4 30 -13 70 -21 88 -7 17 -11 32 -8 32 11 0 -63
129 -113 197 -89 119 -227 226 -388 299 -46 21 -85 42 -85 46 0 10 102 185
199 342 103 167 171 245 240 275 52 22 140 46 202 55 20 3 42 8 50 10 8 3 25
8 39 10 199 38 346 119 497 273 109 111 215 278 304 478 5 11 24 61 43 112 72
190 115 258 296 468 119 138 182 221 222 295 30 55 70 160 61 160 -4 0 -2 5 3
10 10 10 35 7 119 -14 226 -57 419 -142 617 -272 145 -96 235 -180 397 -374
123 -147 286 -317 441 -461 l99 -92 -18 -26 c-19 -27 -58 -129 -66 -171 -3
-14 -7 -36 -10 -50 -8 -40 -14 -125 -20 -270 -5 -133 -11 -176 -35 -235 -6
-16 -11 -30 -10 -30 2 0 -10 -32 -27 -75 -26 -65 -46 -169 -47 -240 0 -62 12
-148 25 -171 5 -10 7 -19 5 -19 -5 0 11 -42 54 -135 12 -27 72 -129 133 -225
128 -203 157 -263 193 -395 20 -74 26 -145 29 -365 2 -113 6 -227 9 -255 4
-27 8 -61 10 -75 5 -45 29 -134 44 -170 9 -19 16 -39 18 -45 1 -5 16 -35 34
-65 38 -66 96 -128 170 -182 138 -102 168 -153 135 -235 -16 -40 -17 -40 -53
-32 -134 30 -251 43 -377 43 -90 0 -233 -11 -257 -19 -7 -2 -29 -6 -49 -9
l-37 -6 -7 46 c-3 25 -8 55 -11 67 -2 12 -6 37 -9 57 -6 37 -8 49 -24 114 -9
37 -8 41 22 65 126 104 189 200 229 349 27 101 33 385 12 512 -8 47 -17 100
-20 118 -3 19 -12 51 -19 73 -8 21 -12 39 -9 39 2 0 -2 16 -10 35 -8 19 -12
35 -8 35 3 0 1 5 -6 12 -7 7 -12 18 -12 26 0 14 -9 36 -62 152 -89 195 -251
357 -433 433 -82 34 -124 45 -242 62 -140 20 -169 25 -243 40 -14 3 -36 7 -50
10 -14 3 -36 7 -50 10 -14 3 -45 8 -70 11 -25 3 -48 8 -51 9 -28 17 -408 25
-544 11 -44 -5 -102 -10 -130 -11 -27 -2 -57 -4 -66 -4 -26 -2 -183 -155 -249
-242 -68 -90 -129 -212 -155 -309 -33 -122 -22 -310 24 -425 29 -72 57 -130
64 -133 4 -2 7 -8 7 -12 0 -11 35 -63 81 -121 73 -92 190 -184 319 -248 67
-34 179 -78 220 -86 8 -2 35 -8 60 -15 25 -7 54 -14 65 -15 11 -2 40 -8 65
-15 25 -7 53 -14 62 -16 10 -2 26 -6 37 -8 10 -2 49 -13 87 -24 38 -11 83 -23
99 -28 17 -4 35 -8 40 -10 35 -8 232 -81 290 -106 266 -117 398 -312 335 -499
-27 -79 -78 -122 -171 -144 -57 -14 -196 -9 -291 11 -37 7 -123 16 -175 17
-221 4 -401 -96 -449 -251 -19 -60 -23 -170 -10 -280 4 -35 9 -82 11 -105 2
-23 7 -78 11 -122 14 -151 12 -170 -14 -173 -13 -2 -53 -19 -90 -38 -36 -19
-79 -35 -96 -37 -26 -2 -35 4 -62 46 -72 110 -181 137 -351 88 -17 -5 -58 -8
-90 -7 -46 1 -69 8 -108 33 -27 17 -72 37 -98 44 -56 14 -152 7 -217 -15 -81
-28 -108 -26 -190 17 -68 35 -80 38 -132 34 -61 -5 -103 -26 -196 -95 -58 -44
-62 -44 -137 -14 -55 22 -159 26 -209 9 -17 -6 -49 -22 -71 -36 -44 -28 -55
-31 -70 -20 -11 7 -46 15 -110 25 -49 7 -54 14 -47 73 8 66 7 260 -1 301 -27
142 -95 237 -206 288 -44 21 -70 27 -126 26 -38 0 -83 -6 -100 -14 -70 -31
-111 -32 -174 -3 -68 31 -83 35 -155 37 -36 1 -79 -6 -110 -17 -116 -42 -162
-41 -271 8 -19 8 -50 22 -68 30 -19 8 -81 30 -138 49 -332 108 -590 73 -771
-105 -113 -111 -162 -252 -135 -388 8 -40 -16 -43 -37 -3 -47 92 -69 241 -53
367 10 81 38 190 62 249 8 20 12 36 9 36 -4 0 -2 6 3 13 6 6 25 53 43 102 19
50 37 95 40 100 19 27 88 258 104 350 3 17 8 41 11 55 16 73 18 143 20 580 1
261 4 485 7 496 4 12 9 39 12 60 4 22 9 47 12 56 3 9 7 25 9 36 2 10 27 79 55
153 107 276 120 313 125 333 2 12 7 32 10 46 56 242 -11 532 -172 743 l-44 59
32 51 c130 206 288 408 479 610 25 27 115 110 200 185 85 75 197 176 249 225
100 93 177 144 251 166 25 7 63 23 85 36 22 12 73 35 114 51 41 16 90 44 110
63 32 30 56 42 111 56 8 2 49 14 90 25 41 12 85 24 97 26 12 2 34 9 48 14 14
5 25 8 25 5 0 -2 18 2 40 10 22 8 43 14 45 14 3 0 18 2 33 5 15 4 36 8 47 10
11 3 53 12 92 20 40 9 85 18 100 21 16 3 39 7 53 10 13 2 40 7 60 10 20 3 45
7 55 9 11 2 45 7 75 11 30 4 63 9 73 11 10 2 45 6 78 9 33 4 70 8 82 11 12 2
72 7 132 10 61 4 111 7 112 8 5 4 417 -2 553 -9z m-261 -1347 c-6 -12 -51 -61
-98 -108 -136 -137 -260 -200 -461 -235 -105 -18 -115 -20 -185 -40 -132 -39
-224 -112 -324 -260 -53 -78 -83 -117 -66 -85 25 46 142 206 187 256 68 74
168 137 238 149 17 3 127 29 195 47 143 36 358 153 475 257 53 47 54 48 39 19z
m2924 -213 c52 -88 118 -236 133 -297 5 -23 10 -40 28 -108 14 -51 18 -69 31
-152 3 -18 10 -58 15 -88 9 -57 16 -104 25 -177 3 -24 8 -62 11 -85 3 -24 7
-54 9 -68 1 -14 5 -43 9 -65 3 -22 8 -56 10 -75 2 -19 8 -60 12 -90 10 -71 11
-323 1 -375 -13 -66 -34 -127 -61 -177 -39 -73 -105 -174 -107 -163 0 6 -2 30
-4 55 -3 59 -15 163 -20 170 -2 4 -6 17 -9 31 -16 80 -88 219 -211 404 -153
232 -186 303 -191 415 -2 61 11 123 46 210 64 161 68 185 85 527 4 98 15 154
42 216 l17 39 55 -59 c31 -32 64 -71 74 -88z m-6214 -427 c33 -73 45 -111 66
-218 7 -33 7 -169 1 -200 -3 -14 -8 -38 -12 -55 -9 -45 -41 -138 -69 -200 -13
-30 -24 -56 -24 -58 0 -1 -10 -24 -21 -50 -30 -68 -70 -177 -76 -207 -3 -14
-9 -41 -14 -60 -21 -78 -24 -141 -25 -555 -1 -236 -2 -448 -3 -470 l-2 -40
-18 30 c-57 96 -155 359 -178 478 -2 10 -5 26 -8 35 -3 9 -8 34 -12 56 -3 21
-8 48 -10 60 -26 126 -26 555 0 646 3 8 8 33 11 55 4 22 8 45 9 50 1 6 6 26
10 45 22 100 93 329 121 395 8 17 26 62 41 100 15 39 51 121 81 184 l53 113
21 -26 c11 -14 37 -63 58 -108z m2129 -146 c-34 -57 -63 -94 -37 -47 32 57 51
85 56 85 2 0 -6 -17 -19 -38z m-72 -119 c-8 -16 -22 -37 -31 -48 -16 -19 -17
-19 -3 5 8 14 20 35 27 48 6 12 14 22 17 22 2 0 -2 -12 -10 -27z m-53 -88 c-3
-9 -8 -14 -10 -11 -3 3 -2 9 2 15 9 16 15 13 8 -4z m-25 -50 c-6 -14 -13 -23
-15 -21 -5 5 15 46 22 46 3 0 -1 -11 -7 -25z m-38 -65 c-6 -11 -13 -20 -16
-20 -2 0 0 9 6 20 6 11 13 20 16 20 2 0 0 -9 -6 -20z m-27 -55 c-3 -9 -8 -14
-10 -11 -3 3 -2 9 2 15 9 16 15 13 8 -4z m-45 -111 c0 -48 33 -77 122 -106
189 -62 315 -142 429 -273 43 -49 99 -155 108 -204 2 -13 6 -27 8 -31 7 -11
19 -143 17 -190 -7 -161 -41 -226 -150 -287 -89 -49 -145 -91 -171 -129 -11
-16 -29 -39 -38 -50 -10 -11 -26 -33 -36 -49 -114 -191 -149 -244 -189 -287
-45 -46 -126 -93 -180 -103 -21 -5 -66 -13 -112 -21 -130 -23 -496 -23 -616 1
-102 20 -140 30 -199 55 -217 89 -355 247 -421 481 -100 359 24 702 306 843
44 22 88 43 99 47 26 10 152 40 190 46 70 10 187 49 287 94 162 74 211 81 355
53 77 -16 84 -16 108 0 15 10 38 44 52 77 14 32 27 59 28 59 1 0 3 -12 3 -26z
m2722 -17 c83 -9 142 -17 170 -22 14 -3 36 -8 50 -10 23 -3 146 -27 210 -40
38 -8 70 -13 120 -20 188 -26 273 -61 378 -159 90 -84 160 -194 208 -327 18
-50 16 -46 44 -154 80 -308 83 -507 13 -683 -22 -54 -42 -81 -124 -161 -76
-76 -99 -105 -104 -133 l-7 -36 -71 73 c-83 83 -180 149 -311 210 -81 38 -280
112 -324 120 -9 2 -18 4 -19 5 -2 2 -7 4 -13 5 -5 1 -12 3 -15 4 -3 0 -7 1
-10 1 -3 1 -23 7 -45 15 -22 8 -40 12 -40 10 0 -2 -18 2 -39 10 -22 7 -52 16
-68 18 -15 3 -68 15 -118 27 -49 12 -97 23 -105 25 -229 54 -407 170 -513 336
-119 186 -143 359 -75 539 24 65 112 185 195 267 l83 81 62 -3 c35 -2 83 0
108 4 52 7 278 6 360 -2z m-6517 -1833 c39 -14 146 -53 235 -87 l164 -61 -48
-21 -48 -21 -41 23 c-104 58 -218 79 -310 58 -86 -19 -146 -56 -229 -140 -56
-57 -91 -83 -120 -92 -22 -7 -41 -11 -43 -10 -1 2 12 25 30 53 18 27 48 78 66
114 63 121 110 178 170 203 42 18 82 13 174 -19z m157 -333 c70 -35 132 -71
140 -82 3 -3 19 -13 35 -22 49 -25 160 -132 197 -189 44 -66 58 -107 63 -183
5 -58 5 -59 -10 -30 -8 17 -14 35 -15 42 0 6 -29 43 -65 82 -35 39 -74 89 -86
113 -36 70 -66 103 -139 152 -111 75 -247 126 -322 121 -16 -1 -28 -1 -28 1 0
2 12 10 28 19 42 24 125 14 202 -24z m456 -63 c28 -30 94 -130 94 -141 0 -5
-20 18 -45 52 -26 33 -69 81 -98 106 l-52 46 40 -19 c22 -11 50 -31 61 -44z
m-597 -134 c42 -9 39 -18 -9 -33 -21 -6 -52 -22 -68 -36 -31 -26 -77 -41 -85
-28 -11 17 24 70 56 86 36 18 60 20 106 11z m-391 -56 c6 -18 13 -40 16 -48 5
-12 -10 -24 -62 -48 -128 -59 -207 -154 -217 -263 -3 -30 -7 -116 -8 -193 l-3
-138 -29 -21 c-56 -39 -150 -142 -174 -191 -16 -32 -26 -74 -29 -117 -4 -61
-1 -75 27 -135 17 -36 47 -88 67 -115 20 -27 33 -49 30 -49 -8 0 -96 118 -96
129 0 6 -4 11 -8 11 -7 0 -25 37 -44 90 -15 44 -19 64 -20 117 -1 67 21 128
93 248 38 64 81 155 73 155 -3 0 0 8 5 18 5 9 12 33 15 52 3 19 8 46 11 60 3
14 8 39 11 55 28 161 123 307 249 384 65 40 82 39 93 -1z m2760 -92 c63 -6
200 -42 260 -67 23 -10 42 -16 42 -12 0 3 6 1 13 -5 16 -14 159 -70 199 -79
39 -8 154 -8 183 0 11 3 34 11 50 17 75 29 120 28 193 -5 100 -46 175 -49 264
-12 67 28 106 26 148 -9 53 -45 73 -97 76 -202 3 -71 0 -99 -12 -116 -22 -35
-25 -62 -8 -101 7 -19 14 -51 14 -72 0 -45 25 -86 71 -117 32 -22 45 -26 124
-41 17 -3 37 -8 45 -10 8 -2 18 -4 22 -4 10 -1 38 -31 38 -40 0 -5 -10 -8 -23
-7 -26 1 -101 -20 -139 -39 -16 -8 -28 -11 -29 -7 -6 62 -32 94 -75 94 -53 1
-72 -2 -86 -14 -7 -7 -53 -48 -100 -91 -66 -59 -91 -88 -99 -118 -14 -44 -28
-52 -23 -13 3 34 -42 83 -81 88 -16 2 -42 8 -56 14 -15 6 -29 8 -32 5 -15 -14
-25 10 -16 40 31 106 28 149 -15 231 -24 45 -34 75 -30 90 18 74 7 154 -32
218 -39 64 -78 87 -179 102 -35 5 -104 -21 -188 -71 -104 -62 -153 -81 -199
-78 -56 4 -126 42 -145 79 -20 35 -18 31 -28 74 -8 34 -82 99 -152 136 -22 11
-33 24 -33 39 0 27 -35 86 -55 93 -25 10 -17 22 13 18 15 -1 51 -5 80 -8z
m-1589 -58 c52 -126 62 -141 210 -294 60 -64 124 -139 140 -168 27 -46 47
-116 44 -153 -2 -32 -4 -34 -25 -27 -69 22 -284 5 -340 -26 -29 -16 -36 -12
-55 38 -27 70 -24 223 7 392 11 59 10 217 -1 247 -13 36 4 27 20 -9z m249 -21
c32 -48 57 -101 43 -93 -11 7 -79 108 -88 132 -11 29 14 7 45 -39z m6952 18
c24 -22 13 -67 -35 -148 -55 -91 -73 -152 -73 -243 0 -43 4 -88 9 -101 5 -13
11 -35 13 -49 5 -25 4 -26 -37 -20 -23 3 -67 8 -97 11 -30 3 -63 8 -72 11 -9
3 -25 6 -35 8 -10 2 -67 23 -128 46 -186 72 -267 89 -398 85 -56 -2 -113 -6
-127 -9 -14 -4 -41 -9 -60 -12 -19 -3 -39 -8 -45 -12 -5 -3 2 8 18 25 16 17
27 40 27 57 0 87 115 178 225 179 79 0 128 -23 238 -112 49 -39 105 -78 125
-87 47 -20 145 -25 177 -8 13 6 26 10 28 8 2 -3 27 16 54 40 73 66 96 125 99
251 1 55 2 101 3 101 6 8 78 -9 91 -21z m-8415 -248 c0 -42 -5 -70 -15 -82
-14 -17 -15 -16 -20 11 -9 43 15 134 34 134 1 0 2 -29 1 -63z m2695 0 c54 -26
65 -38 98 -103 37 -74 104 -143 167 -173 149 -70 277 -59 391 34 23 19 47 35
53 35 6 0 11 4 11 9 0 8 28 18 77 27 30 5 42 -30 40 -121 -1 -82 2 -95 29
-150 17 -33 29 -67 27 -75 -12 -42 -12 -43 -46 -21 -162 107 -373 152 -592
127 -140 -16 -176 -16 -193 5 -8 10 -16 26 -17 36 -4 50 -44 147 -91 219 -57
89 -68 114 -70 159 -2 49 14 59 50 32 17 -13 47 -31 66 -40z m-2153 -239 c-8
-51 -17 -68 -44 -74 -13 -4 -26 -5 -28 -3 -4 5 65 109 72 109 2 0 2 -15 0 -32z
m299 -156 c-3 -10 -8 -37 -11 -62 -8 -53 -29 -107 -53 -134 -20 -22 -84 -52
-127 -60 -17 -3 -45 -10 -63 -15 l-34 -10 39 42 c21 23 64 78 95 122 59 84 83
110 121 130 27 14 40 9 33 -13z m4464 -12 c47 -24 51 -32 13 -21 -16 4 -48 7
-73 5 l-45 -3 25 19 c31 24 32 24 80 0z m160 -64 c-1 -29 -16 -33 -43 -12
l-28 23 35 0 c20 0 36 -5 36 -11z m773 -5 c22 -8 86 -89 75 -94 -29 -15 -45
-28 -54 -46 -11 -21 -12 -21 -24 10 -18 44 -56 87 -94 106 -27 14 -28 17 -12
23 31 10 82 11 109 1z m-5194 -46 l20 -35 -22 -21 c-12 -11 -31 -25 -41 -31
-16 -9 -18 -8 -11 8 4 11 13 40 18 67 6 26 12 47 13 47 1 0 11 -16 23 -35z
m4042 1 c-14 -16 -50 -124 -51 -151 -2 -37 -22 26 -25 77 -2 51 3 59 50 76 40
14 39 14 26 -2z m-5317 -38 c-9 -17 -22 -47 -30 -67 l-14 -36 4 42 c4 39 32
92 49 93 4 0 0 -14 -9 -32z m1629 -30 c-11 -13 -30 -34 -42 -48 -13 -14 -50
-61 -84 -105 -138 -181 -200 -239 -297 -276 -28 -10 -112 -35 -187 -54 -264
-68 -330 -105 -438 -251 -62 -83 -112 -114 -151 -93 -13 6 -47 33 -76 59 -79
69 -138 100 -218 114 -41 6 -94 32 -113 53 -24 27 -29 76 -10 103 15 21 15 21
61 -25 87 -85 191 -116 372 -111 120 3 140 6 209 31 60 21 116 63 196 145 66
68 148 131 205 157 46 21 95 41 152 62 101 36 161 74 233 144 75 74 103 92
162 106 21 5 40 9 42 10 3 1 -5 -9 -16 -21z m4304 0 c18 -25 29 -84 27 -143
-1 -33 -2 -95 -3 -137 l-1 -78 -34 0 c-28 0 -35 4 -40 25 -4 14 -7 26 -7 27
-11 30 -25 149 -23 200 1 60 4 69 30 92 33 29 38 31 51 14z m-5649 -71 c20
-22 16 -25 -46 -33 -78 -9 -85 -4 -63 48 23 54 59 67 80 29 7 -14 20 -34 29
-44z m4608 47 c-7 -36 -10 -37 -31 -14 -17 19 -17 20 6 29 13 5 25 10 27 10 1
1 0 -11 -2 -25z m-1371 -19 c48 -16 102 -43 135 -68 l55 -42 -89 -3 c-107 -3
-160 10 -295 78 -54 28 -105 50 -112 50 -11 0 -11 2 -1 8 7 5 61 7 120 6 86
-1 123 -7 187 -29z m2002 7 c34 -21 36 -99 8 -217 -31 -125 -89 -105 -86 30 0
33 2 67 4 75 8 32 29 105 34 113 5 9 25 9 40 -1z m2604 -47 c63 -15 100 -19
264 -29 90 -6 108 -13 95 -36 -5 -9 -8 -19 -5 -21 2 -3 -4 -15 -14 -28 l-18
-24 -84 33 c-46 18 -104 38 -128 46 -45 13 -181 13 -213 -1 -15 -6 -18 -1 -18
33 0 23 5 42 13 45 14 4 18 4 108 -18z m-1822 -90 c-2 -96 -17 -105 -18 -10 0
61 2 85 9 75 5 -8 9 -37 9 -65z m-4546 8 c-56 -123 -196 -290 -393 -468 -108
-97 -190 -141 -296 -160 -45 -8 -92 -12 -105 -10 -13 2 -53 6 -88 9 -35 4 -66
8 -69 11 -14 13 131 84 206 100 12 3 31 7 43 10 11 2 29 7 39 10 10 3 27 7 37
9 14 3 81 21 113 31 3 1 18 7 33 13 16 7 30 12 33 12 3 0 31 16 62 36 83 53
163 134 260 264 76 104 131 170 139 170 1 0 -5 -17 -14 -37z m5502 17 c6 -18
3 -83 -10 -230 -6 -73 -17 -193 -20 -220 -2 -14 -3 -35 -4 -47 -1 -13 -5 -23
-10 -23 -5 0 -8 19 -6 43 1 23 6 89 10 147 8 110 13 210 14 298 1 52 14 69 26
32z m-6685 -53 c-14 -8 -49 -28 -77 -45 -29 -17 -53 -28 -53 -23 0 13 22 29
77 56 50 25 97 35 53 12z m6094 -2 c-4 -8 -8 -15 -10 -15 -2 0 -4 7 -4 15 0 8
4 15 10 15 5 0 7 -7 4 -15z m1020 -220 c-2 -83 -5 -113 -19 -189 -7 -36 -59
-151 -73 -160 -9 -6 -8 235 2 294 2 14 7 43 10 65 4 23 8 52 11 65 6 32 19 93
21 103 1 4 2 13 3 21 0 8 9 16 19 18 14 3 18 -7 22 -62 3 -36 4 -105 4 -155z
m-4438 161 c173 -87 188 -90 342 -89 l103 1 -5 -46 c-2 -26 -5 -48 -5 -49 -1
-1 -16 3 -33 8 -18 5 -75 12 -126 14 -108 5 -182 23 -309 73 -92 36 -93 36
-94 72 0 19 -2 43 -4 53 -5 26 13 21 131 -37z m944 47 c0 -5 -5 -15 -10 -23
-8 -12 -10 -11 -10 8 0 12 5 22 10 22 6 0 10 -3 10 -7z m894 -28 c3 -17 8 -42
11 -56 10 -43 13 -146 5 -159 -8 -14 -19 53 -27 170 -5 83 0 105 11 45z m-339
-30 c3 -22 8 -76 11 -120 4 -81 9 -138 19 -210 6 -44 -11 -88 -37 -93 -11 -2
-17 6 -20 31 -3 30 0 341 5 419 2 37 14 22 22 -27z m-352 -48 c6 -117 -5 -107
-17 16 -5 42 1 83 9 75 2 -2 5 -43 8 -91z m-4151 -11 c5 -22 20 -55 34 -73 28
-37 27 -39 -19 -19 -31 13 -127 106 -127 124 0 4 23 8 52 7 l52 0 8 -39z
m-493 -131 c45 -47 49 -54 54 -113 8 -101 73 -186 171 -227 20 -9 36 -18 36
-21 0 -3 -4 -2 -10 1 -9 6 -33 9 -160 20 -89 7 -105 11 -157 36 -37 18 -50 32
-69 73 -36 81 -37 146 -2 261 7 22 18 50 26 63 l15 22 24 -32 c13 -18 45 -55
72 -83z m4311 -2 c12 -27 23 -55 25 -63 11 -56 16 -109 20 -210 3 -63 9 -129
14 -147 9 -30 6 -43 -9 -43 -21 0 -58 139 -65 247 -13 191 -16 263 -11 263 3
0 15 -21 26 -47z"/>
<path d="M6404 5698 c-11 -12 -32 -40 -48 -61 -15 -20 -45 -46 -68 -58 -58
-30 -125 -95 -146 -143 -50 -112 -66 -243 -65 -536 0 -201 1 -206 27 -265 45
-100 102 -145 183 -145 84 1 183 76 239 184 16 31 31 56 34 56 3 0 22 -32 43
-70 50 -91 91 -123 167 -128 101 -7 159 26 208 120 26 50 27 60 27 188 -1 117
-9 264 -20 318 -8 44 -17 102 -16 107 2 10 -41 122 -67 174 -69 142 -248 260
-422 277 -49 5 -57 3 -76 -18z m199 -217 c40 -24 85 -73 114 -123 24 -41 61
-152 69 -208 3 -19 7 -48 9 -65 14 -93 29 -245 27 -282 0 -18 -6 -42 -12 -53
-16 -30 -35 -12 -76 75 -39 81 -133 192 -172 202 -71 19 -102 -8 -147 -123
-37 -94 -89 -184 -112 -192 -19 -6 -40 49 -37 98 2 25 5 110 8 190 12 340 18
357 140 437 44 29 83 59 88 67 10 17 51 8 101 -23z"/>
</g>
</svg>
